<svg width="32" height="32" viewBox="0 0 32 32" fill="none" xmlns="http://www.w3.org/2000/svg">
<g clip-path="url(#clip0_3508_1427)">
<rect width="32" height="31.2558" fill="white"/>
<path d="M11.7071 20.275L14.5113 17.3835L17.701 20.275H23.1691L14.4762 11.9103L5.85352 20.275H11.7071Z" fill="#2D383F"/>
<path d="M19.7342 6.85012L15.5981 10.9808L18.3321 13.7346L19.7342 12.3577L27.4105 19.8619C25.6579 24.4401 21.1713 27.7103 15.8785 27.7103C9.0784 27.7103 3.57528 22.3059 3.57528 15.6279C3.61033 8.94988 9.11345 3.54554 15.9135 3.54554C21.9424 3.54554 26.9898 7.84841 28.0064 13.4593L31.7218 17.3146C31.7919 16.7638 31.827 16.1787 31.827 15.6279C31.827 11.4628 30.1796 7.5386 27.1651 4.57822C24.1507 1.61787 20.1548 0 15.9135 0C11.6372 0 7.67635 1.61787 4.66189 4.57822C1.64743 7.5386 0 11.4283 0 15.6279C0 19.8275 1.64743 23.7172 4.66189 26.6776C7.67635 29.638 11.6723 31.2558 15.9135 31.2558C20.1548 31.2558 24.1507 29.638 27.1651 26.6776C29.0229 24.8532 30.3548 22.6846 31.0909 20.3094C31.2311 19.8963 31.3363 19.4489 31.4414 19.0358L28.2167 15.6967L19.7342 6.85012Z" fill="#2D383F"/>
</g>
<defs>
<clipPath id="clip0_3508_1427">
<rect width="32" height="31.2558" fill="white"/>
</clipPath>
</defs>
</svg>
